<svg width="311" height="128" viewBox="0 0 311 128" fill="none" xmlns="http://www.w3.org/2000/svg">
<g filter="url(#filter0_d)">
<path fill-rule="evenodd" clip-rule="evenodd" d="M25 11C19.4772 11 15 15.4772 15 21V82.1434C15 87.6662 19.4772 92.1434 25 92.1434H32.0264L38.0389 106.514C39.0665 108.97 42.5464 108.97 43.574 106.514L49.5865 92.1434H85C90.5229 92.1434 95 87.6662 95 82.1434V21C95 15.4772 90.5229 11 85 11H25Z" fill="black"/>
</g>
<path d="M51.0117 65H47.7134V53.4985H35.1694V65H31.8882V40.1172H35.1694V50.8154H47.7134V40.1172H51.0117V65ZM64.6706 55.2588V65H61.3894V40.1172H70.5666C73.2896 40.1172 75.4201 40.8122 76.9582 42.2021C78.5077 43.5921 79.2824 45.4321 79.2824 47.7222C79.2824 50.1375 78.5248 52.0003 77.0095 53.3105C75.5056 54.6094 73.3465 55.2588 70.5324 55.2588H64.6706ZM64.6706 52.5757H70.5666C72.3212 52.5757 73.6656 52.1655 74.5998 51.3452C75.534 50.5135 76.0012 49.3172 76.0012 47.7563C76.0012 46.2752 75.534 45.0903 74.5998 44.2017C73.6656 43.313 72.3838 42.8516 70.7546 42.8174H64.6706V52.5757Z" fill="white"/>
<path d="M138.143 61H133.371V52.6875H126.303V61H121.504V41.0938H126.303V48.9961H133.371V41.0938H138.143V61ZM156.384 57.2812H149.808L148.66 61H143.533L150.833 41.0938H155.345L162.701 61H157.546L156.384 57.2812ZM150.956 53.5762H155.236L153.089 46.6719L150.956 53.5762ZM172.602 54.2461V61H167.803V41.0938H175.747C177.269 41.0938 178.613 41.3763 179.78 41.9414C180.956 42.4974 181.863 43.2949 182.501 44.334C183.148 45.3639 183.471 46.5352 183.471 47.8477C183.471 49.7891 182.774 51.3431 181.38 52.5098C179.994 53.6673 178.089 54.2461 175.665 54.2461H172.602ZM172.602 50.541H175.747C176.676 50.541 177.383 50.3086 177.866 49.8438C178.358 49.3789 178.604 48.7227 178.604 47.875C178.604 46.9453 178.354 46.2025 177.852 45.6465C177.351 45.0905 176.667 44.8079 175.801 44.7988H172.602V50.541ZM194.481 54.2461V61H189.682V41.0938H197.625C199.147 41.0938 200.492 41.3763 201.658 41.9414C202.834 42.4974 203.741 43.2949 204.379 44.334C205.026 45.3639 205.35 46.5352 205.35 47.8477C205.35 49.7891 204.652 51.3431 203.258 52.5098C201.872 53.6673 199.968 54.2461 197.543 54.2461H194.481ZM194.481 50.541H197.625C198.555 50.541 199.261 50.3086 199.744 49.8438C200.236 49.3789 200.482 48.7227 200.482 47.875C200.482 46.9453 200.232 46.2025 199.731 45.6465C199.229 45.0905 198.546 44.8079 197.68 44.7988H194.481V50.541ZM218.847 49.7344L222.511 41.0938H227.693L221.281 53.8496V61H216.414V53.8496L210.015 41.0938H215.169L218.847 49.7344ZM248.194 54.2461V61H243.395V41.0938H251.338C252.86 41.0938 254.205 41.3763 255.371 41.9414C256.547 42.4974 257.454 43.2949 258.092 44.334C258.739 45.3639 259.063 46.5352 259.063 47.8477C259.063 49.7891 258.365 51.3431 256.971 52.5098C255.585 53.6673 253.68 54.2461 251.256 54.2461H248.194ZM248.194 50.541H251.338C252.268 50.541 252.974 50.3086 253.457 49.8438C253.949 49.3789 254.195 48.7227 254.195 47.875C254.195 46.9453 253.945 46.2025 253.444 45.6465C252.942 45.0905 252.259 44.8079 251.393 44.7988H248.194V50.541ZM277.619 52.5645H270.072V57.3086H278.986V61H265.273V41.0938H279.013V44.7988H270.072V48.9961H277.619V52.5645ZM300.481 44.7988H294.507V61H289.708V44.7988H283.843V41.0938H300.481V44.7988Z" fill="black"/>
<defs>
<filter id="filter0_d" x="0" y="0" width="110" height="127.356" filterUnits="userSpaceOnUse" color-interpolation-filters="sRGB">
<feFlood flood-opacity="0" result="BackgroundImageFix"/>
<feColorMatrix in="SourceAlpha" type="matrix" values="0 0 0 0 0 0 0 0 0 0 0 0 0 0 0 0 0 0 127 0"/>
<feOffset dy="4"/>
<feGaussianBlur stdDeviation="7.5"/>
<feColorMatrix type="matrix" values="0 0 0 0 0 0 0 0 0 0 0 0 0 0 0 0 0 0 0.5 0"/>
<feBlend mode="normal" in2="BackgroundImageFix" result="effect1_dropShadow"/>
<feBlend mode="normal" in="SourceGraphic" in2="effect1_dropShadow" result="shape"/>
</filter>
</defs>
</svg>
